HIERARCHY
ROOT Hips
{
	OFFSET 0.000000 0.000000 0.000000
	CHANNELS 6 Xposition Yposition Zposition Xrotation Yrotation Zrotation
	JOINT LeftUpLeg_virtual
	{
		OFFSET 0.000000 0.000000 0.000000
		CHANNELS 3 Xrotation Yrotation Zrotation
		JOINT LeftUpLeg
		{
			OFFSET 11.394100 -6.187798 -0.413800
			CHANNELS 3 Xrotation Yrotation Zrotation
			JOINT LeftLeg
			{
				OFFSET 0.430247 -32.302673 3.732800
				CHANNELS 3 Xrotation Yrotation Zrotation
				JOINT LeftFoot
				{
					OFFSET -0.430247 -48.264931 -6.423300
					CHANNELS 3 Xrotation Yrotation Zrotation
					JOINT LeftToeBase
					{
						OFFSET 4.230900 -16.068199 23.438400
						CHANNELS 3 Xrotation Yrotation Zrotation
						JOINT LeftToe_End
						{
							OFFSET 4.510700 0.695400 19.974600
							CHANNELS 3 Xrotation Yrotation Zrotation
							End Site
							{
								OFFSET 0 0 0
							}
						}
					}
				}
			}
		}
	}
	JOINT RightUpLeg_virtual
	{
		OFFSET 0.000000 0.000000 0.000000
		CHANNELS 3 Xrotation Yrotation Zrotation
		JOINT RightUpLeg
		{
			OFFSET -11.333700 -6.187798 -0.413800
			CHANNELS 3 Xrotation Yrotation Zrotation
			JOINT RightLeg
			{
				OFFSET -0.430392 -32.302628 3.733000
				CHANNELS 3 Xrotation Yrotation Zrotation
				JOINT RightFoot
				{
					OFFSET 0.430392 -48.264973 -6.423500
					CHANNELS 3 Xrotation Yrotation Zrotation
					JOINT RightToeBase
					{
						OFFSET -4.230900 -16.068199 23.438400
						CHANNELS 3 Xrotation Yrotation Zrotation
						JOINT RightToe_End
						{
							OFFSET -4.510700 0.695400 19.974600
							CHANNELS 3 Xrotation Yrotation Zrotation
							End Site
							{
								OFFSET 0 0 0
							}
						}
					}
				}
			}
		}
	}
	JOINT Spine_virtual
	{
		OFFSET 0.000000 0.000000 0.000000
		CHANNELS 3 Xrotation Yrotation Zrotation
		JOINT Spine
		{
			OFFSET -0.002400 12.777504 0.315300
			CHANNELS 3 Xrotation Yrotation Zrotation
			JOINT Spine1
			{
				OFFSET -0.002067 5.816869 0.032633
				CHANNELS 3 Xrotation Yrotation Zrotation
				JOINT Spine1_split
				{
					OFFSET -0.002067 5.816869 0.032633
					CHANNELS 3 Xrotation Yrotation Zrotation
					JOINT Spine2
					{
						OFFSET -0.002067 5.816869 0.032633
						CHANNELS 3 Xrotation Yrotation Zrotation
						JOINT Neck_virtual
						{
							OFFSET 0.000000 0.000000 0.000000
							CHANNELS 3 Xrotation Yrotation Zrotation
							JOINT Neck
							{
								OFFSET -0.003700 21.199493 -0.826900
								CHANNELS 3 Xrotation Yrotation Zrotation
								JOINT Head
								{
									OFFSET 0.000000 20.442200 4.834800
									CHANNELS 3 Xrotation Yrotation Zrotation
									JOINT HeadTop_End
									{
										OFFSET 0.000000 34.668396 4.968400
										CHANNELS 3 Xrotation Yrotation Zrotation
										End Site
										{
											OFFSET 0 0 0
										}
									}
								}
							}
						}
						JOINT LeftShoulder_virtual
						{
							OFFSET 0.000000 0.000000 0.000000
							CHANNELS 3 Xrotation Yrotation Zrotation
							JOINT LeftShoulder
							{
								OFFSET 3.288150 8.794197 -1.372250
								CHANNELS 3 Xrotation Yrotation Zrotation
								JOINT LeftShoulder_split
								{
									OFFSET 3.288150 8.794197 -1.372250
									CHANNELS 3 Xrotation Yrotation Zrotation
									JOINT LeftArm
									{
										OFFSET 11.953299 -2.279007 -0.146200
										CHANNELS 3 Xrotation Yrotation Zrotation
										JOINT LeftForeArm
										{
											OFFSET 18.448900 0.000000 0.000000
											CHANNELS 3 Xrotation Yrotation Zrotation
											JOINT LeftHand
											{
												OFFSET 29.527798 0.000000 0.000000
												CHANNELS 3 Xrotation Yrotation Zrotation
												End Site
												{
													OFFSET 0 0 0
												}
											}
										}
									}
								}
							}
						}
						JOINT RightShoulder_virtual
						{
							OFFSET 0.000000 0.000000 0.000000
							CHANNELS 3 Xrotation Yrotation Zrotation
							JOINT RightShoulder
							{
								OFFSET -3.249400 8.794197 -1.372250
								CHANNELS 3 Xrotation Yrotation Zrotation
								JOINT RightShoulder_split
								{
									OFFSET -3.249400 8.794197 -1.372250
									CHANNELS 3 Xrotation Yrotation Zrotation
									JOINT RightArm
									{
										OFFSET -11.953299 -2.279007 -0.146200
										CHANNELS 3 Xrotation Yrotation Zrotation
										JOINT RightForeArm
										{
											OFFSET -18.448900 0.000000 0.000000
											CHANNELS 3 Xrotation Yrotation Zrotation
											JOINT RightHand
											{
												OFFSET -29.527802 0.000000 0.000000
												CHANNELS 3 Xrotation Yrotation Zrotation
												End Site
												{
													OFFSET 0 0 0
												}
											}
										}
									}
								}
							}
						}
					}
				}
			}
		}
	}
}
MOTION
Frames: 11
Frame Time: 0.03333333
11.464304 101.297813 -3.634689 0.000000 0.000000 0.000000 -0.530195 -18.533865 -2.174520 -13.109722 6.842314 -1.033553 18.118001 9.342614 2.651316 -7.199499 18.573364 1.713163 -10.703379 0.000006 0.000000 0.000000 0.000000 0.000000 -0.530195 -18.533865 -2.174520 -14.834862 -7.088217 -12.162771 14.763232 2.659262 2.465573 -9.716338 -3.871636 8.677467 -8.438122 -0.000005 -0.000002 0.000000 0.000000 0.000000 -0.530195 -18.533865 -2.174520 4.472650 1.686413 -2.168995 0.263398 0.569444 -0.234719 0.000000 0.000000 0.000000 0.000000 0.000000 0.000000 0.259934 0.575305 -0.235202 -0.614421 0.259445 3.053838 11.190385 11.650976 10.196007 0.000000 0.000000 0.000000 0.259934 0.575305 -0.235202 2.655928 -4.173618 -12.024666 0.000000 0.000000 0.000000 -11.354769 -17.200395 -60.369201 0.000008 -14.732020 0.000003 0.000000 0.000000 0.000000 0.259934 0.575305 -0.235202 2.178415 0.469374 15.702948 0.000000 0.000000 0.000000 6.014223 -0.860594 63.957755 -0.000003 14.800950 -0.000008 0.000000 0.000000 0.000000 
12.033907 101.292297 -3.388706 0.000000 0.000000 0.000000 -0.400196 -19.197785 -2.415431 -13.157191 6.801661 -1.206476 18.072698 9.329493 2.690330 -7.284170 19.237742 2.083784 -10.632979 -0.000003 -0.000000 0.000000 0.000000 0.000000 -0.400196 -19.197785 -2.415431 -14.996951 -6.972272 -12.155798 14.610927 3.068045 2.531061 -9.906792 -3.920653 8.538958 -8.407003 -0.000006 -0.000003 0.000000 0.000000 0.000000 -0.400196 -19.197785 -2.415431 4.344309 1.236295 -2.265223 0.212746 0.451139 -0.248040 0.000000 0.000000 0.000000 0.000000 0.000000 0.000000 0.209997 0.457549 -0.249456 -0.676047 0.363725 3.241258 11.273843 13.135221 10.728868 0.000000 0.000000 0.000000 0.209997 0.457549 -0.249456 2.666473 -4.458580 -11.991966 0.000000 0.000000 0.000000 -11.925374 -18.438342 -60.942622 0.000001 -15.296900 0.000021 0.000000 0.000000 0.000000 0.209997 0.457549 -0.249456 2.229753 0.128998 15.927380 0.000000 0.000000 0.000000 5.674416 -0.408650 64.436954 0.000004 15.408097 0.000010 0.000000 0.000000 0.000000 
12.540464 101.295326 -3.158451 0.000000 0.000000 0.000000 -0.220155 -19.782454 -2.615253 -13.224430 6.776411 -1.330643 17.957179 9.312467 2.702700 -7.268056 19.814473 2.384440 -10.562545 0.000001 -0.000000 0.000000 0.000000 0.000000 -0.220155 -19.782454 -2.615253 -15.136843 -6.883939 -12.147876 14.417732 3.238285 2.546007 -10.132238 -3.979374 8.502215 -8.375876 0.000003 0.000000 0.000000 0.000000 0.000000 -0.220155 -19.782454 -2.615253 4.208027 0.709750 -2.428817 0.165082 0.312359 -0.289361 0.000000 0.000000 0.000000 0.000000 0.000000 0.000000 0.163354 0.319509 -0.292050 -0.743326 0.449657 3.455310 11.434274 14.520118 11.315072 0.000000 0.000000 0.000000 0.163354 0.319509 -0.292050 2.633633 -4.716141 -11.762448 0.000000 0.000000 0.000000 -12.145295 -19.959022 -61.514637 -0.000011 -16.226675 -0.000002 0.000000 0.000000 0.000000 0.163354 0.319509 -0.292050 2.301183 -0.222076 16.229416 0.000000 0.000000 0.000000 5.160321 0.078141 64.897787 0.000003 15.935550 0.000022 0.000000 0.000000 0.000000 
12.990839 101.313461 -2.941486 0.000000 0.000000 0.000000 0.091991 -20.328187 -2.753150 -13.395512 6.711192 -1.476380 17.799446 9.292338 2.759780 -7.300641 20.415821 2.670003 -10.492238 -0.000001 0.000002 0.000000 0.000000 0.000000 0.091991 -20.328187 -2.753150 -15.337483 -6.796246 -12.115149 14.143122 3.309290 2.552910 -10.287137 -4.032913 8.455927 -8.344808 0.000000 0.000005 0.000000 0.000000 0.000000 0.091991 -20.328187 -2.753150 3.983954 0.160346 -2.676328 0.108366 0.169804 -0.345939 0.000000 0.000000 0.000000 0.000000 0.000000 0.000000 0.107950 0.177827 -0.350154 -0.816813 0.513491 3.692736 11.709288 15.764160 11.871396 0.000000 0.000000 0.000000 0.107950 0.177827 -0.350154 2.588618 -4.869844 -11.506928 0.000000 0.000000 0.000000 -12.196942 -21.829834 -61.937200 0.000004 -17.471477 0.000001 0.000000 0.000000 0.000000 0.107950 0.177827 -0.350154 2.389271 -0.693204 16.609290 0.000000 0.000000 0.000000 4.537142 0.660911 65.259555 0.000002 16.375636 0.000028 0.000000 0.000000 0.000000 
13.381464 101.347588 -2.733639 0.000000 0.000000 0.000000 0.532464 -20.827905 -2.875622 -13.690550 6.631440 -1.563954 17.625192 9.270108 2.843419 -7.338331 20.968809 2.919099 -10.422222 -0.000008 -0.000002 0.000000 0.000000 0.000000 0.532464 -20.827905 -2.875622 -15.540311 -6.720723 -12.006935 13.697476 3.291801 2.584113 -10.275892 -4.069946 8.370020 -8.313872 0.000004 0.000001 0.000000 0.000000 0.000000 0.532464 -20.827905 -2.875622 3.667394 -0.356829 -2.978218 0.048452 0.035361 -0.422422 0.000000 0.000000 0.000000 0.000000 0.000000 0.000000 0.049646 0.044191 -0.428283 -0.885517 0.543030 3.967776 11.917267 16.797592 12.478659 0.000000 0.000000 0.000000 0.049646 0.044191 -0.428283 2.538560 -4.996347 -11.236840 0.000000 0.000000 0.000000 -12.203169 -23.916047 -62.274817 -0.000009 -18.845180 0.000002 0.000000 0.000000 0.000000 0.049646 0.044191 -0.428283 2.503077 -1.271406 17.102495 0.000000 0.000000 0.000000 3.843672 1.244934 65.482731 -0.000004 16.670670 0.000014 0.000000 0.000000 0.000000 
13.710168 101.386780 -2.528149 0.000000 0.000000 0.000000 1.011680 -21.238651 -2.977541 -14.008593 6.526151 -1.637116 17.408019 9.250587 2.967488 -7.286746 21.476886 3.094917 -10.352647 -0.000014 -0.000001 0.000000 0.000000 0.000000 1.011680 -21.238651 -2.977541 -15.667001 -6.662154 -11.867790 13.168345 3.116658 2.578104 -10.280781 -4.111922 8.394685 -8.283206 -0.000018 -0.000007 0.000000 0.000000 0.000000 1.011680 -21.238651 -2.977541 3.345991 -0.891935 -3.344829 -0.000236 -0.102651 -0.507739 0.000000 0.000000 0.000000 0.000000 0.000000 0.000000 0.002963 -0.093057 -0.515358 -0.954680 0.553332 4.259100 11.992379 17.660542 13.084543 0.000000 0.000000 0.000000 0.002963 -0.093057 -0.515358 2.475103 -5.227727 -10.890657 0.000000 0.000000 0.000000 -12.060453 -25.828944 -62.657123 -0.000003 -20.450445 -0.000004 0.000000 0.000000 0.000000 0.002963 -0.093057 -0.515358 2.613136 -1.830001 17.585591 0.000000 0.000000 0.000000 3.121781 1.709673 65.690833 0.000000 16.890761 -0.000030 0.000000 0.000000 0.000000 
13.968661 101.428223 -2.332535 0.000000 0.000000 0.000000 1.540425 -21.520027 -3.017061 -14.341541 6.381066 -1.732421 17.100417 9.232222 3.130632 -7.068584 21.929349 3.178227 -10.283670 -0.000005 -0.000001 0.000000 0.000000 0.000000 1.540425 -21.520027 -3.017061 -15.743736 -6.621197 -11.737781 12.572159 2.778453 2.511944 -10.275937 -4.161377 8.559256 -8.252838 -0.000002 0.000004 0.000000 0.000000 0.000000 1.540425 -21.520027 -3.017061 3.033072 -1.533971 -3.836281 -0.035742 -0.264686 -0.599083 0.000000 0.000000 0.000000 0.000000 0.000000 0.000000 -0.029854 -0.254271 -0.608751 -1.042932 0.555261 4.592572 11.973661 18.502868 13.658076 0.000000 0.000000 0.000000 -0.029854 -0.254271 -0.608751 2.395738 -5.560256 -10.447323 0.000000 0.000000 0.000000 -11.802111 -27.261617 -63.129082 -0.000002 -22.245004 -0.000007 0.000000 0.000000 0.000000 -0.029854 -0.254271 -0.608751 2.706378 -2.318894 18.001657 0.000000 0.000000 0.000000 2.543632 2.271840 65.871867 0.000005 17.206957 -0.000006 0.000000 0.000000 0.000000 
14.166656 101.471321 -2.169781 0.000000 0.000000 0.000000 2.101167 -21.659146 -3.051754 -14.731876 6.258453 -1.735058 16.791199 9.217990 3.255428 -6.748209 22.195555 3.201033 -10.215461 0.000013 0.000002 0.000000 0.000000 0.000000 2.101167 -21.659146 -3.051754 -15.761737 -6.621199 -11.586181 11.845665 2.376905 2.468743 -10.099212 -4.198633 8.723238 -8.222895 0.000001 0.000005 0.000000 0.000000 0.000000 2.101167 -21.659146 -3.051754 2.768462 -2.254862 -4.420597 -0.062150 -0.444096 -0.699513 0.000000 0.000000 0.000000 0.000000 0.000000 0.000000 -0.052829 -0.432647 -0.711437 -1.139583 0.537984 4.963324 11.984620 19.239321 14.330603 0.000000 0.000000 0.000000 -0.052829 -0.432647 -0.711437 2.312856 -5.946085 -9.923336 0.000000 0.000000 0.000000 -11.459931 -28.388566 -63.583071 0.000006 -23.957414 0.000016 0.000000 0.000000 0.000000 -0.052829 -0.432647 -0.711437 2.792779 -2.708295 18.383569 0.000000 0.000000 0.000000 2.162689 2.907629 65.964519 0.000003 17.596027 -0.000012 0.000000 0.000000 0.000000 
14.324027 101.504448 -2.043926 0.000000 0.000000 0.000000 2.601952 -21.739254 -3.148680 -15.168906 6.135094 -1.668361 16.626152 9.207581 3.402152 -6.492494 22.374301 3.187113 -10.145908 -0.000004 0.000000 0.000000 0.000000 0.000000 2.601952 -21.739254 -3.148680 -15.774452 -6.601363 -11.358891 11.242662 2.007291 2.439838 -10.006128 -4.239522 8.808876 -8.192219 -0.000011 -0.000002 0.000000 0.000000 0.000000 2.601952 -21.739254 -3.148680 2.638693 -2.877171 -5.019592 -0.079051 -0.592442 -0.796188 0.000000 0.000000 0.000000 0.000000 0.000000 0.000000 -0.066384 -0.579567 -0.810116 -1.209054 0.508122 5.294200 11.933847 19.733369 15.143873 0.000000 0.000000 0.000000 -0.066384 -0.579567 -0.810116 2.237993 -6.352264 -9.452233 0.000000 0.000000 0.000000 -11.078404 -29.367795 -63.864646 -0.000006 -25.495792 -0.000012 0.000000 0.000000 0.000000 -0.066384 -0.579567 -0.810116 2.864971 -3.026331 18.704586 0.000000 0.000000 0.000000 1.965934 3.449104 66.018751 -0.000005 18.025453 0.000010 0.000000 0.000000 0.000000 
14.443852 101.528862 -1.930950 0.000000 0.000000 0.000000 3.056467 -21.845904 -3.311947 -15.695590 6.002888 -1.558488 16.701974 9.205857 3.607911 -6.477991 22.548000 3.169721 -10.073037 0.000003 -0.000001 0.000000 0.000000 0.000000 3.056467 -21.845904 -3.311947 -15.872228 -6.509817 -11.017069 10.938991 1.594206 2.358945 -10.206593 -4.304188 8.805908 -8.159799 -0.000005 -0.000002 0.000000 0.000000 0.000000 3.056467 -21.845904 -3.311947 2.597581 -3.285788 -5.568748 -0.083913 -0.682049 -0.879799 0.000000 0.000000 0.000000 0.000000 0.000000 0.000000 -0.068758 -0.667787 -0.895029 -1.231807 0.480516 5.549294 11.737950 20.037011 15.997787 0.000000 0.000000 0.000000 -0.068758 -0.667787 -0.895029 2.192512 -6.699681 -9.144822 0.000000 0.000000 0.000000 -10.753837 -30.226667 -63.887800 0.000002 -26.863803 0.000012 0.000000 0.000000 0.000000 -0.068758 -0.667787 -0.895029 2.903599 -3.345717 18.896835 0.000000 0.000000 0.000000 1.889098 3.837616 66.112645 -0.000003 18.343573 0.000038 0.000000 0.000000 0.000000 
14.530396 101.550865 -1.827160 0.000000 0.000000 0.000000 3.485762 -21.951354 -3.523026 -16.241949 5.924696 -1.335574 16.871477 9.207393 3.756814 -6.554420 22.624457 3.159707 -9.997195 0.000002 -0.000000 0.000000 0.000000 0.000000 3.485762 -21.951354 -3.523026 -16.016153 -6.389590 -10.590975 10.841646 1.039470 2.223466 -10.631239 -4.390982 8.763722 -8.125763 -0.000004 -0.000002 0.000000 0.000000 0.000000 3.485762 -21.951354 -3.523026 2.637098 -3.488143 -6.050251 -0.069780 -0.716873 -0.951833 0.000000 0.000000 0.000000 0.000000 0.000000 0.000000 -0.053127 -0.701425 -0.967509 -1.249961 0.448799 5.720898 11.652770 20.132848 16.705372 0.000000 0.000000 0.000000 -0.053127 -0.701425 -0.967509 2.174330 -7.011624 -8.974736 0.000000 0.000000 0.000000 -10.585085 -30.819412 -63.765779 0.000003 -27.992579 -0.000014 0.000000 0.000000 0.000000 -0.053127 -0.701425 -0.967509 2.911889 -3.623560 18.965712 0.000000 0.000000 0.000000 1.914457 4.095504 66.210556 0.000001 18.514309 0.000011 0.000000 0.000000 0.000000 
